<?xml version="1.0" encoding="UTF-8" standalone="no"?>
<!-- Created with Inkscape (http://www.inkscape.org/) -->

<svg
   width="469.67899"
   height="138.77788"
   viewBox="0 0 469.679 138.77787"
   version="1.1"
   id="SVGRoot"
   xml:space="preserve"
   sodipodi:docname="kora.svg"
   inkscape:version="1.4.2 (f4327f4, 2025-05-13)"
   xmlns:inkscape="http://www.inkscape.org/namespaces/inkscape"
   xmlns:sodipodi="http://sodipodi.sourceforge.net/DTD/sodipodi-0.dtd"
   xmlns:xlink="http://www.w3.org/1999/xlink"
   xmlns="http://www.w3.org/2000/svg"
   xmlns:svg="http://www.w3.org/2000/svg"><sodipodi:namedview
     id="namedview2"
     pagecolor="#ffffff"
     bordercolor="#000000"
     borderopacity="0.25"
     inkscape:showpageshadow="2"
     inkscape:pageopacity="0.0"
     inkscape:pagecheckerboard="0"
     inkscape:deskcolor="#d1d1d1"
     inkscape:zoom="1.3474322"
     inkscape:cx="78.668154"
     inkscape:cy="151.77016"
     inkscape:window-width="1920"
     inkscape:window-height="1009"
     inkscape:window-x="-8"
     inkscape:window-y="-8"
     inkscape:window-maximized="1"
     inkscape:current-layer="SVGRoot" /><defs
     id="defs63"><color-profile
       name="sRGB-IEC61966-2.1"
       xlink:href="file:///WINDOWS/system32/spool/drivers/color/sRGB%20Color%20Space%20Profile.icm"
       id="color-profile1" /></defs><g
     id="layer3"
     style="display:inline"
     transform="translate(-764.7435,-666.63412)"><g
       id="layer4"
       style="display:inline"><path
         style="display:inline;fill:#c8c8c8;fill-opacity:1;fill-rule:evenodd;stroke:#c8c8c8;stroke-width:1.36526;stroke-linecap:round;stroke-linejoin:round;stroke-miterlimit:0.5;stroke-dasharray:none;stroke-dashoffset:5.3858;stroke-opacity:1;paint-order:normal"
         d="m 765.42613,669.82478 41.02409,0.0176 -16.11117,70.91527 62.16287,-70.87387 40.71329,-0.0741 -127.6148,126.83047 z"
         id="path1" /><path
         style="display:inline;fill:#c8c8c8;fill-opacity:1;fill-rule:evenodd;stroke:#c8c8c8;stroke-width:1.36526;stroke-linecap:round;stroke-linejoin:round;stroke-miterlimit:0.5;stroke-dasharray:none;stroke-dashoffset:5.3858;stroke-opacity:1;paint-order:normal"
         d="m 840.85934,737.21021 -23.89103,23.74011 45.40553,43.75925 30.79801,0.0198 z"
         id="path2" /><path
         style="font-weight:bold;font-size:173.496px;line-height:0px;font-family:'Reem Kufi';-inkscape-font-specification:'Reem Kufi, Bold';baseline-shift:baseline;fill:#c8c8c8;fill-rule:evenodd;stroke-width:4.90648;stroke-linecap:round;stroke-linejoin:round;stroke-miterlimit:0.5;stroke-dashoffset:5.3858"
         d="m 893.82238,725.79401 q 0,-13.1857 5.03139,-24.98343 5.03138,-11.79772 13.87968,-20.81952 9.02179,-9.19528 20.81952,-14.40016 11.79773,-5.20488 25.33041,-5.20488 13.3592,0 25.15692,5.20488 11.79773,5.20488 20.8195,14.40016 9.1953,9.0218 14.2267,20.81952 5.2049,11.79773 5.2049,24.98343 0,13.53269 -5.2049,25.33041 -5.0314,11.79773 -14.2267,20.81952 -9.02177,8.8483 -20.8195,13.87968 -11.79772,5.03139 -25.15692,5.03139 -13.53268,0 -25.33041,-5.03139 -11.79773,-5.03138 -20.81952,-13.87968 -8.8483,-9.02179 -13.87968,-20.81952 -5.03139,-11.79772 -5.03139,-25.33041 z m 26.0244,0 q 0,11.27724 5.20488,20.64602 5.37838,9.19529 14.40017,14.74716 9.02179,5.37838 20.29903,5.37838 10.93025,0 19.60505,-5.37838 8.8483,-5.55187 13.87968,-14.74716 5.03139,-9.36878 5.03139,-20.64602 0,-11.62423 -5.20488,-20.81952 -5.20488,-9.36879 -14.05318,-14.74716 -8.8483,-5.55187 -19.95204,-5.55187 -11.10374,0 -19.95204,5.55187 -8.8483,5.37837 -14.05318,14.74716 -5.20488,9.19529 -5.20488,20.81952 z"
         id="text1"
         transform="scale(0.98762575,1.0125293)"
         aria-label="O" /><path
         style="font-weight:bold;font-size:173.496px;line-height:0px;font-family:'Reem Kufi';-inkscape-font-specification:'Reem Kufi, Bold';baseline-shift:baseline;fill:#c8c8c8;fill-rule:evenodd;stroke-width:4.96795;stroke-linecap:round;stroke-linejoin:round;stroke-miterlimit:0.5;stroke-dashoffset:5.3858"
         d="m 1061.2976,671.6654 q 24.116,0 36.9547,11.79773 13.0122,11.62423 13.0122,31.22928 0,10.93025 -4.6844,21.5135 -4.5109,10.58326 -15.4411,16.82912 l 29.6678,46.32343 h -29.3209 l -26.8918,-40.59807 h -16.8291 v 40.59807 h -25.157 V 671.6654 Z m 4.3374,62.80555 q 7.6339,0 11.7978,-3.12292 4.3374,-3.29643 6.0723,-7.63383 1.735,-4.51089 1.735,-8.15431 0,-2.08195 -0.694,-5.20488 -0.5205,-3.29642 -2.4289,-6.59285 -1.9085,-3.29642 -5.8989,-5.55187 -3.8169,-2.25545 -10.4098,-2.25545 h -18.0435 v 38.51611 z"
         id="text2"
         aria-label="R" /><path
         style="font-weight:bold;font-size:173.496px;line-height:0px;font-family:'Reem Kufi';-inkscape-font-specification:'Reem Kufi, Bold';baseline-shift:baseline;fill:#c8c8c8;fill-rule:evenodd;stroke-width:4.96795;stroke-linecap:round;stroke-linejoin:round;stroke-miterlimit:0.5;stroke-dashoffset:5.3858"
         d="m 1117.8332,799.35846 57.6006,-132.72444 h 1.388 l 57.6007,132.72444 h -29.1473 l -9.8893,-24.98342 h -42.333 l -10.4098,24.98342 z m 44.068,-46.14994 h 25.1569 l -12.3182,-31.05578 z"
         id="text3"
         aria-label="A" /></g></g></svg>
